<svg width="16" height="14" viewBox="0 0 16 14" fill="none" xmlns="http://www.w3.org/2000/svg">
<path d="M8.075 11.9125C8.033 11.9545 7.9655 11.9561 7.9215 11.9162L7.9175 11.9125C4.355 8.68 2 6.5425 2 4.375C2 2.875 3.125 1.75 4.625 1.75C5.5411 1.75 6.4383 2.2218 6.9686 2.926C7.2166 3.2552 7.5739 3.52 7.986 3.52H8.014C8.4261 3.52 8.7834 3.2552 9.0314 2.926C9.5617 2.2218 10.4589 1.75 11.375 1.75C12.875 1.75 14 2.875 14 4.375C14 6.5425 11.645 8.68 8.075 11.9125ZM11.375 0.25C10.4715 0.25 9.5931 0.5412 8.8669 1.0365C8.3607 1.3817 7.6393 1.3817 7.1331 1.0365C6.4069 0.5412 5.5285 0.25 4.625 0.25C2.315 0.25 0.5 2.0575 0.5 4.375C0.5 7.2025 3.05 9.52 6.9125 13.0225L7.3268 13.3997C7.7084 13.747 8.2916 13.747 8.6732 13.3997L9.0875 13.0225C12.95 9.52 15.5 7.2025 15.5 4.375C15.5 2.0575 13.685 0.25 11.375 0.25Z" fill="#126E3D"/>
</svg>
