<svg width="66" height="66" viewBox="0 0 66 66" fill="none" xmlns="http://www.w3.org/2000/svg">
<path d="M33 66C51.2254 66 66 51.2254 66 33C66 14.7746 51.2254 0 33 0C14.7746 0 0 14.7746 0 33C0 51.2254 14.7746 66 33 66Z" fill="#126E3D"/>
<path d="M14.6744 50.4958L17.153 41.3878C15.5198 38.588 14.6617 35.4038 14.667 32.1624C14.667 22.0369 22.8749 13.8291 33.0004 13.8291C43.1259 13.8291 51.3337 22.0369 51.3337 32.1624C51.3337 42.2879 43.1259 50.4958 33.0004 50.4958C29.7604 50.501 26.5776 49.6436 23.7787 48.0116L14.6744 50.4958ZM26.3838 23.5604C26.1471 23.5751 25.9158 23.6375 25.7037 23.7438C25.5048 23.8564 25.3233 23.9972 25.1647 24.1618C24.9447 24.3689 24.82 24.5486 24.6862 24.7228C24.0086 25.6046 23.6441 26.687 23.6504 27.7991C23.654 28.6974 23.8887 29.5719 24.2554 30.3896C25.0052 32.0433 26.239 33.7941 27.8689 35.4166C28.2612 35.8071 28.6444 36.1994 29.0569 36.5643C31.0797 38.3453 33.4903 39.6297 36.0969 40.3153L37.14 40.4748C37.4792 40.4931 37.8184 40.4674 38.1594 40.4509C38.6933 40.4234 39.2146 40.2788 39.6865 40.0274C39.9266 39.9038 40.1609 39.7692 40.3887 39.6241C40.3887 39.6241 40.4675 39.5728 40.6179 39.4591C40.8654 39.2758 41.0175 39.1456 41.2229 38.9311C41.375 38.7734 41.507 38.5883 41.6079 38.3774C41.7509 38.0786 41.8938 37.5084 41.9525 37.0336C41.9965 36.6706 41.9837 36.4726 41.9782 36.3498C41.9708 36.1536 41.8077 35.9501 41.6299 35.8639L40.5629 35.3854C40.5629 35.3854 38.9679 34.6906 37.9944 34.2469C37.8917 34.2022 37.7817 34.1767 37.6699 34.1718C37.5444 34.1589 37.4177 34.173 37.2981 34.2132C37.1786 34.2533 37.0691 34.3186 36.9768 34.4046V34.4009C36.9677 34.4009 36.8448 34.5054 35.5193 36.1114C35.4433 36.2137 35.3385 36.2909 35.2183 36.3334C35.0982 36.3758 34.9681 36.3815 34.8447 36.3498C34.7252 36.3178 34.6082 36.2774 34.4945 36.2288C34.2672 36.1334 34.1883 36.0968 34.0325 36.0289L34.0233 36.0253C32.9745 35.5673 32.0034 34.9488 31.145 34.1919C30.914 33.9903 30.6995 33.7703 30.4795 33.5576C29.7582 32.8669 29.1297 32.0855 28.6095 31.2329L28.5013 31.0588C28.4237 30.9417 28.3608 30.8155 28.3144 30.6829C28.2447 30.4134 28.4262 30.1971 28.4262 30.1971C28.4262 30.1971 28.8717 29.7094 29.0789 29.4454C29.2513 29.226 29.4123 28.9978 29.561 28.7616C29.7773 28.4133 29.8452 28.0558 29.7315 27.7789C29.2182 26.5249 28.6865 25.2764 28.1402 24.0371C28.032 23.7914 27.7112 23.6154 27.4197 23.5806C27.3207 23.5696 27.2217 23.5586 27.1227 23.5513C26.8765 23.539 26.6298 23.5433 26.3838 23.5604Z" fill="white"/>
</svg>
