<svg width="28" height="26" viewBox="0 0 28 26" fill="none" xmlns="http://www.w3.org/2000/svg">
<path d="M21.6145 25.5637C21.297 25.5637 20.981 25.4662 20.7091 25.2721L14.3156 20.687L7.92206 25.2721C7.65717 25.4627 7.33883 25.5647 7.01251 25.5636C6.68619 25.5624 6.36857 25.4582 6.105 25.2658C5.84119 25.0745 5.64441 24.8049 5.54268 24.4953C5.44094 24.1858 5.43943 23.852 5.53835 23.5415L7.92285 15.8457L1.58671 11.3809C1.32412 11.1871 1.1291 10.9156 1.02925 10.6049C0.929394 10.2942 0.929754 9.95997 1.03028 9.64947C1.1316 9.33973 1.32769 9.06967 1.59086 8.87744C1.85402 8.68522 2.17093 8.58056 2.49682 8.57826L10.3443 8.56647L12.8427 1.06166C12.9459 0.752497 13.1436 0.483606 13.408 0.293068C13.6724 0.102529 13.9901 0 14.316 0C14.6419 0 14.9595 0.102529 15.2239 0.293068C15.4883 0.483606 15.6861 0.752497 15.7892 1.06166L18.2452 8.56647L26.1328 8.57826C26.459 8.5801 26.7764 8.6847 27.0398 8.87722C27.3033 9.06973 27.4993 9.34035 27.6002 9.65065C27.701 9.96095 27.7015 10.2951 27.6016 10.6057C27.5017 10.9163 27.3065 11.1876 27.0436 11.3809L20.7075 15.8457L23.092 23.5415C23.1911 23.8519 23.1898 24.1857 23.0882 24.4953C22.9866 24.8049 22.7899 25.0745 22.5261 25.2658C22.2618 25.4597 21.9423 25.5641 21.6145 25.5637Z" fill="#FFAC33"/>
</svg>
