<svg width="66" height="66" viewBox="0 0 66 66" fill="none" xmlns="http://www.w3.org/2000/svg">
<path d="M33 66C51.2254 66 66 51.2254 66 33C66 14.7746 51.2254 0 33 0C14.7746 0 0 14.7746 0 33C0 51.2254 14.7746 66 33 66Z" fill="#126E3D"/>
<path d="M44.245 22.1447L32.7295 26.6249L21.214 31.1051C19.6423 31.742 19.6514 32.6267 20.9257 33.0212L26.8386 34.8822L40.5196 26.1734C41.1664 25.7763 41.7575 25.9899 41.2717 26.425L30.1874 36.5178L29.7795 42.6684C30.3771 42.6684 30.6408 42.3918 30.9759 42.0655L33.848 39.2477L39.822 43.6998C40.9235 44.3118 41.7146 43.9973 41.9887 42.671L45.9103 24.024C46.3117 22.4002 45.2959 21.665 44.245 22.1447Z" fill="white"/>
</svg>
