<svg width="66" height="66" viewBox="0 0 66 66" fill="none" xmlns="http://www.w3.org/2000/svg">
<path d="M33 66C51.2254 66 66 51.2254 66 33C66 14.7746 51.2254 0 33 0C14.7746 0 0 14.7746 0 33C0 51.2254 14.7746 66 33 66Z" fill="#126E3D"/>
<path fill-rule="evenodd" clip-rule="evenodd" d="M44.3879 27.1111C44.5808 26.4844 44.3879 26.0289 43.5348 26.0289H40.6981C39.9826 26.0289 39.6522 26.4278 39.4593 26.8545C39.4593 26.8545 38.0001 30.4989 35.9623 32.8617C35.3015 33.545 34.9987 33.7728 34.6407 33.7728C34.4478 33.7728 34.1997 33.545 34.1997 32.9189V27.0817C34.1997 26.3417 33.9798 26 33.3737 26H28.9125C28.4716 26 28.1964 26.3417 28.1964 26.6833C28.1964 27.395 29.2153 27.5661 29.3253 29.5589V33.8889C29.3253 34.8284 29.1628 35 28.802 35C27.8384 35 25.4978 31.3272 24.0938 27.1422C23.8208 26.3133 23.5435 26 22.8274 26H19.9636C19.1376 26 19 26.3983 19 26.8255C19 27.5944 19.9636 31.4661 23.4883 36.5905C25.8288 40.0906 29.1606 41.9716 32.162 41.9716C33.9798 41.9716 34.1997 41.5444 34.1997 40.8328V38.185C34.1997 37.3311 34.3649 37.1889 34.9434 37.1889C35.3562 37.1889 36.0999 37.4161 37.7796 39.0961C39.7068 41.0889 40.0373 42 41.1114 42H43.9476C44.7736 42 45.1593 41.5728 44.9388 40.7472C44.6913 39.9217 43.7547 38.7261 42.5431 37.3028C41.8822 36.5061 40.8909 35.6234 40.5882 35.1961C40.1754 34.6267 40.2853 34.3989 40.5882 33.8867C40.5605 33.8867 44.0304 28.8189 44.3879 27.1089" fill="white"/>
</svg>
