<svg width="26" height="26" viewBox="0 0 26 26" fill="none" xmlns="http://www.w3.org/2000/svg">
<path d="M13 26C20.1797 26 26 20.1797 26 13C26 5.8203 20.1797 0 13 0C5.8203 0 0 5.8203 0 13C0 20.1797 5.8203 26 13 26Z" fill="#126E3D"/>
<path d="M6.00283 20L6.94921 16.274C6.32562 15.1286 5.99799 13.826 6.00001 12.5C6.00001 8.35773 9.13393 5 13 5C16.8661 5 20 8.35773 20 12.5C20 16.6422 16.8661 20 13 20C11.7629 20.0021 10.5477 19.6514 9.47902 18.9837L6.00283 20ZM10.4737 8.98098C10.3833 8.98699 10.295 9.01252 10.214 9.05601C10.1381 9.10207 10.0688 9.15967 10.0082 9.22701C9.92422 9.31173 9.8766 9.38524 9.82552 9.45651C9.5668 9.81724 9.42762 10.26 9.43003 10.715C9.4314 11.0825 9.52102 11.4402 9.66103 11.7747C9.94732 12.4513 10.4184 13.1675 11.0407 13.8312C11.1905 13.991 11.3368 14.1515 11.4943 14.3008C12.2667 15.0293 13.1871 15.5548 14.1823 15.8352L14.5806 15.9005C14.7101 15.908 14.8396 15.8975 14.9698 15.8907C15.1737 15.8795 15.3727 15.8203 15.5529 15.7175C15.6446 15.6669 15.734 15.6118 15.821 15.5525C15.821 15.5525 15.8511 15.5315 15.9085 15.485C16.003 15.41 16.0611 15.3567 16.1395 15.269C16.1976 15.2045 16.248 15.1287 16.2865 15.0425C16.3411 14.9202 16.3957 14.687 16.4181 14.4927C16.4349 14.3442 16.43 14.2632 16.4279 14.213C16.4251 14.1327 16.3628 14.0495 16.2949 14.0142L15.8875 13.8185C15.8875 13.8185 15.2785 13.5342 14.9068 13.3527C14.8676 13.3344 14.8256 13.324 14.7829 13.322C14.735 13.3167 14.6866 13.3225 14.641 13.3389C14.5953 13.3553 14.5535 13.3821 14.5183 13.4172V13.4157C14.5148 13.4157 14.4679 13.4585 13.9618 14.1155C13.9328 14.1573 13.8928 14.1889 13.8469 14.2063C13.801 14.2236 13.7513 14.226 13.7042 14.213C13.6586 14.1999 13.6139 14.1834 13.5705 14.1635C13.4837 14.1245 13.4536 14.1095 13.3941 14.0817L13.3906 14.0802C12.9901 13.8929 12.6194 13.6399 12.2916 13.3302C12.2034 13.2478 12.1215 13.1578 12.0375 13.0707C11.7621 12.7882 11.5221 12.4685 11.3235 12.1197L11.2822 12.0485C11.2526 12.0006 11.2285 11.949 11.2108 11.8947C11.1842 11.7845 11.2535 11.696 11.2535 11.696C11.2535 11.696 11.4236 11.4965 11.5027 11.3885C11.5686 11.2987 11.63 11.2054 11.6868 11.1087C11.7694 10.9663 11.7953 10.82 11.7519 10.7067C11.5559 10.1937 11.3529 9.68298 11.1443 9.17599C11.103 9.07548 10.9805 9.00348 10.8692 8.98924C10.8314 8.98474 10.7936 8.98024 10.7558 8.97726C10.6618 8.97223 10.5676 8.97398 10.4737 8.98098Z" fill="white"/>
</svg>
